<svg xmlns="http://www.w3.org/2000/svg" viewBox="0 0 64 64" role="img" aria-labelledby="title">
  <title id="title">RangaBot Goldie chat mark for dark themes</title>
  <path fill="#E6C483" d="M32 4C16.8 4 5 15.5 5 31c0 12.7 7.8 22.8 20 27 3 1 6.1 1.4 9.1.9-2.8-3.9-3.5-7.8-2-11.5 1.8-4.4 5.8-6.3 11.2-8.8C52.6 34.2 58 26.3 58 18.2 51.9 9.4 42.5 4 32 4Z"/>
  <path fill="#CFC6B6" d="M22.1 18.2c3.9-3.3 9.9-3.8 14.3-.8 3.2 2.2 4.1 5.2 7.6 6.1 2.1.5 4.4.2 6.3.9 1.6.6 2.5 1.8 2.4 3.2-.1 1.2-.9 2.2-2.2 2.8-.3 4-3.8 6.8-9.7 8.9-5.9 2.1-9.7 5.3-11.4 9.9-1.1 3-.8 6.1.9 9.6-6-.3-11.4-2.8-15.6-7.1 4.1-4.8 6.2-9.8 6.2-15.2V24c0-2.7.2-4.6 1.2-5.8Z"/>
  <path fill="#E6C483" d="M21.8 19.4c-1.6 5.8-1.5 12.2.2 19.1 1 4.1-.2 7.8-3.6 11.1 4.8-1.5 7.3-5 7-10.1l-1-15.6c-.2-3-1-4.5-2.6-4.5Z"/>
  <path fill="#263F36" d="M32.8 23.1c1.9-1.2 4.2-1.1 6 .3-1.7 2-4.3 2.4-6.4.9-.5-.4-.3-.9.4-1.2Z"/>
  <path fill="#263F36" d="M49.4 25c1.9-.2 3.6.7 4.5 2.1-.5 1.5-1.7 2.5-3.6 2.9-1.7-1.1-2-3.5-.9-5Z"/>
</svg>
